<svg xmlns="http://www.w3.org/2000/svg" width="512" height="512" viewBox="0 0 512 512">
  <defs>
    <linearGradient id="background" x1="0%" y1="0%" x2="0%" y2="100%">
      <stop offset="0" stop-color="#34353a" />
      <stop offset="1" stop-color="#151517" />
    </linearGradient>
    <radialGradient id="ambient" cx="50%" cy="18%" r="78%">
      <stop offset="0" stop-color="#ffffff" stop-opacity="0.035" />
      <stop offset="1" stop-color="#000000" stop-opacity="0.12" />
    </radialGradient>
    <linearGradient id="face" x1="0%" y1="0%" x2="0%" y2="100%">
      <stop offset="0" stop-color="#ddd6fe" />
      <stop offset="0.58" stop-color="#c4b5fd" />
      <stop offset="1" stop-color="#a78bfa" />
    </linearGradient>
  </defs>
  <rect width="512" height="512" fill="url(#background)" />
  <rect width="512" height="512" fill="url(#ambient)" />
  <path
    d="M256 108 394 390h-68l-29-65h-82l-29 65h-68Zm0 98-25 70h50Z"
    fill="#3b176d"
    fill-rule="evenodd"
    transform="translate(-9 20)"
  />
  <path
    d="M256 108 394 390h-68l-29-65h-82l-29 65h-68Zm0 98-25 70h50Z"
    fill="#6d28d9"
    fill-rule="evenodd"
    transform="translate(-4 10)"
  />
  <path
    d="M256 108 394 390h-68l-29-65h-82l-29 65h-68Zm0 98-25 70h50Z"
    fill="url(#face)"
    fill-rule="evenodd"
    stroke="#ede9fe"
    stroke-opacity="0.62"
    stroke-width="3"
    stroke-linejoin="round"
  />
</svg>
